<svg version="1" xmlns="http://www.w3.org/2000/svg" width="1618.667" height="1618.667" viewBox="0 0 1214.000000 1214.000000"><path d="M384.5 67.2c-.3 1.3-3.4 19.3-6.9 40l-6.3 37.8h315.1c298 0 315.3-.1 318.5-1.8 6.3-3.2 6.7-4.4 12.2-38.3 3.1-18.8 4.9-32.8 4.5-34.4-1.5-5.9 21-5.5-322-5.5H385l-.5 2.2zM364.6 192.7c-.3 1.6-36.1 207.5-79.6 457.8-43.4 250.2-79.2 456-79.5 457.3l-.6 2.3 201.8-.4c147.9-.3 204.3-.7 211.3-1.5 44.9-5.7 72.6-11.5 102.5-21.5 56.6-19.1 102.7-50 135.4-90.7 37.3-46.3 55.7-98.1 59.6-167.5.8-13.2-.7-35.4-3.6-52.5-10.3-61.7-48.4-111.6-100.8-131.9l-7.4-2.9 9.4-4.3c65-30 105.5-66.4 130.4-117.4 11.2-22.7 17.2-43.4 20.6-70 1.7-13.3 1.7-53.3 0-65.5-6.2-45.4-23.2-80.6-54-112.4-42.3-43.5-103.7-68.4-192.1-78-29.9-3.3-48.4-3.6-200.2-3.6H365.2l-.6 2.7zM690 345.4c34.7 5.1 55.1 14 70.8 31.1 14.3 15.6 20.5 38.5 18.2 66.8-3 37-15.7 64.8-40.4 88.5-23.5 22.6-55.3 36.2-100.1 42.9-10.9 1.6-18.7 1.8-83.5 1.5-39.3-.2-71.6-.5-71.8-.6-.1-.2 8.9-52.6 20-116.5l20.3-116.3 77.5.5c65.6.4 79.3.7 89 2.1zm-37.9 366.2c42 5.7 67.5 25 78.2 58.9 3.8 12.1 5.1 24.3 4.4 41.3-1.7 41.8-14.3 72.5-41 99-27.3 27.3-64 43.1-109.7 47.2-13.8 1.3-165.3 1.1-166.6-.2-.3-.4 9.1-56.2 21-124S460 710.1 460 709.7c0-.5 40.8-.5 90.8-.2 71.1.5 93 .9 101.3 2.1z"/></svg>